<svg width="515" height="112" viewBox="0 0 515 112" fill="none" xmlns="http://www.w3.org/2000/svg">
<path d="M51.7262 24.1799C51.9058 24.1586 52.0297 24.1421 52.2155 24.1701C54.4927 24.5143 56.2703 25.2912 57.7311 27.0939C59.4015 29.1549 60.6768 32.039 59.5417 34.6437C59.1206 35.6105 58.3938 36.4406 58.3024 37.6125C58.118 39.9702 60.1842 41.1022 61.4225 42.6916C62.9288 44.6976 62.7048 46.8955 62.5759 49.174C62.3469 53.2227 57.2714 53.1185 56.6237 56.3351C56.3807 58.3909 59.2322 60.201 60.9948 60.2355C65.0949 60.3152 63.7064 54.7731 66.3151 52.8068C68.5486 51.1238 69.4453 50.6718 72.0983 50.8517C76.1625 53.9539 72.4061 63.5845 67.8942 63.5588C59.9177 63.5144 64.4356 69.7497 58.1159 72.9084C53.3416 75.2953 52.7406 72.9011 48.4225 71.5998C47.7601 71.7466 46.9935 72.0173 46.57 72.5451C45.4825 73.905 45.6075 77.3559 46.9333 78.4533C48.9801 80.1478 51.7047 78.259 53.9928 78.258C55.5015 78.2572 57.1373 79.2344 58.2389 80.2013C58.864 80.7263 59.9216 81.7762 59.9802 82.6213C60.055 83.7132 58.2757 85.5262 57.4382 86.0988C56.2086 86.94 53.9398 87.5575 52.4538 87.5724C50.0475 87.5974 47.7853 86.8852 46.4391 84.7756C46.1071 84.2858 45.4288 83.1835 45.0358 82.8625C43.0609 81.2497 40.6633 82.6827 38.6032 82.7375C36.0996 82.8039 34.3233 82.0267 32.5104 80.4006C31.8422 79.8015 31.3193 79.5124 30.9567 78.5822C30.1402 76.5725 31.1017 73.4918 29.487 71.8508C28.0876 70.4292 25.0067 72.1496 24.027 73.4025C21.8441 76.1933 25.58 78.4772 27.0778 80.4338C27.4484 80.9181 27.71 81.9201 27.78 82.5285C27.9316 84.1844 27.6682 86.2402 26.7194 87.6476C26.3435 88.1802 25.8261 88.208 25.2546 88.2658C24.3402 88.1627 22.5943 87.8834 21.7624 87.3664C19.0576 85.6847 16.6901 82.4399 17.1208 79.1086C17.4884 77.3864 18.6008 76.4998 18.6696 74.6457C18.722 73.2327 18.4556 72.8199 17.4557 71.7404C16.2002 70.3853 15.0795 69.1038 14.5837 67.2707C14.2564 66.06 14.2851 65.0571 14.4509 63.8058C14.5522 63.0225 14.6922 62.0565 15.0378 61.3185C16.0834 59.5581 19.2679 58.6174 20.1813 56.8508C20.468 56.3088 20.5218 55.6738 20.3298 55.092C19.7858 53.393 16.837 51.6744 15.0934 52.2336C12.7996 52.9697 12.7989 56.1683 11.9235 57.9992C11.1593 59.6105 9.37964 60.8206 7.73406 61.3947C5.63956 62.125 4.16237 61.6207 3.53289 59.3869C2.8363 56.9147 3.26933 54.6865 4.48015 52.4719C5.54522 50.524 7.44618 48.8515 9.73504 48.7512C10.2732 48.7272 11.747 48.6447 12.1589 48.5002C14.5912 47.5751 14.5515 44.9281 15.5807 42.8547C16.8043 40.3899 19.8677 38.6854 22.5553 38.465C24.5865 38.299 27.2695 41.2792 29.4684 40.6379C31.2655 40.1135 31.4858 36.8168 30.9714 35.3166C29.529 31.3857 25.8863 34.0723 23.1667 34.173C22.4142 34.2009 21.2137 33.6397 20.528 33.3263C18.7733 32.3451 17.7299 31.5599 17.0905 29.6515C17.2835 28.9874 17.4741 28.4132 17.9421 27.8683C19.5225 26.0283 21.4018 25.2494 23.7507 24.9211C25.9998 24.6069 28.9539 25.2675 30.36 27.134C30.9321 27.8934 31.2742 29.0427 32.1618 29.6799C34.0002 30.9993 36.2746 29.9483 38.2311 29.7062C40.3521 29.4439 42.1911 30.2682 43.8239 31.4094C47.0387 33.6569 46.1916 35.1547 46.6735 38.5695C46.7782 39.309 47.093 40.3041 47.7399 40.7551C48.2578 41.1162 48.9641 41.1855 49.5866 41.0627C50.7632 40.8464 52.6659 39.7378 53.3112 38.7072C54.9847 36.0319 51.2368 33.7196 49.9587 31.842C49.672 31.4217 49.5977 30.9737 49.5055 30.5256C49.1149 28.6294 49.236 26.5818 50.3132 24.925C50.7022 24.3262 51.0879 24.2669 51.7262 24.1799ZM33.4411 44.3469C31.4175 45.4097 32.2392 48.289 31.0348 50.0236C30.5362 50.7417 30.0573 51.4298 29.3317 51.9885C28.4244 52.638 26.1692 54.0793 27.1481 55.507C28.5202 57.5077 30.345 57.8329 31.2311 60.4279C31.7486 61.9432 31.2941 64.7003 33.0036 65.2844C34.7105 65.5548 36.5822 64.0832 38.6178 64.1242C40.9027 64.1704 42.112 65.754 44.1569 65.4953C44.6496 65.3425 45.0509 64.9458 45.238 64.4943C46.058 62.4524 45.5578 60.8555 47.1423 59.0021C48.0509 57.9395 49.3118 57.3458 50.1208 56.4465C52.0361 54.3182 48.3616 52.6861 47.3454 51.3605C46.652 50.4552 46.3257 49.4058 46.071 48.3166C45.8514 47.0376 46.1879 45.3663 44.6999 44.6711C43.5094 44.1438 41.539 45.47 40.0182 45.7258C37.3496 46.1742 35.4913 44.2321 33.4411 44.3469Z" fill="#222222"/>
<path d="M2.23504 65.4678C4.57535 66.473 5.32163 76.8209 2.24918 76.9631C-0.386295 75.5048 -0.352855 69.7466 0.56655 67.2205C0.896952 66.3121 1.38861 65.8466 2.23504 65.4678Z" fill="#222222"/>
<path d="M29.1784 91.8812C30.0094 91.8624 33.3294 92.7552 34.1068 93.2106C35.6501 94.1971 37.8333 95.2641 38.4834 97.0848C38.7209 97.7503 38.2927 98.1799 37.6701 98.3361C35.9727 98.5329 34.5714 98.2603 33.049 97.4519C31.0245 96.3763 29.1721 95.3859 28.2545 93.1528C28.4026 92.4076 28.3682 92.0991 29.1784 91.8812Z" fill="#222222"/>
<path d="M10.3287 28.6903C14.391 28.5636 11.2667 31.6934 9.92028 32.8248C7.99983 34.4386 6.75267 35.0258 4.39963 35.7215C2.8727 36.1297 1.88158 35.1203 2.72059 33.7511C4.37807 31.046 7.37176 29.5552 10.3287 28.6903Z" fill="#222222"/>
<path d="M73.4822 76.5948C74.1822 76.5206 74.4908 77.058 74.6986 77.6235C74.0119 80.1011 71.7595 81.4008 69.686 82.6209C68.3781 83.3903 67.357 83.6152 65.8483 83.6035C65.1428 83.534 64.9327 83.2536 64.5686 82.6748C66.0515 79.6051 70.1422 76.9994 73.4822 76.5948Z" fill="#222222"/>
<path d="M74.4134 35.5609C76.8447 35.4041 77.1065 40.9347 76.9713 42.5742C76.833 44.2432 76.6463 45.6479 75.3486 46.8063C74.2071 47.2113 73.8384 45.6288 73.561 44.8581C72.7344 42.5703 72.6391 39.9596 73.1587 37.592C73.3766 36.5987 73.5431 36.1164 74.4134 35.5609Z" fill="#222222"/>
<path d="M39.6412 14.0176C42.5132 13.7562 47.8172 16.4477 48.711 19.2821C48.5509 19.9892 48.6102 20.4125 47.7649 20.4821C44.6664 20.2347 40.3529 18.3666 38.713 15.5766C38.2193 14.7372 38.9295 14.2576 39.6412 14.0176Z" fill="#222222"/>
<path d="M136.632 61.256V89H127.032V62.216C127.032 52.232 123.672 48.584 118.584 48.584C108.024 48.584 101.304 63.176 101.304 72.104V89H91.704V31.112C91.704 28.904 90.84 28.52 89.4 28.52H88.92V19.88H93.912C98.328 19.88 101.304 22.856 101.304 27.272V49.928C105.336 43.688 111.48 39.272 119.736 39.176C130.776 39.176 136.632 46.76 136.632 61.256ZM144.278 67.784V40.04H153.878V66.824C153.878 76.808 157.238 80.456 162.326 80.456C172.886 80.456 179.606 65.864 179.606 56.936V40.04H189.206V77.768C189.206 79.976 190.07 80.36 191.51 80.36H191.99V89H186.998C182.582 89 179.606 86.024 179.606 81.608V79.112C175.574 85.352 169.43 89.768 161.174 89.864C150.134 89.864 144.278 82.28 144.278 67.784ZM196.275 82.472L202.227 74.408C204.915 78.152 210.579 79.976 215.763 80.168C221.427 80.36 225.843 78.92 226.227 76.328C226.899 72.296 216.339 69.32 213.747 68.552C205.395 66.056 196.275 62.6 196.851 53.576C197.523 43.88 207.027 39.176 216.819 39.08C224.307 39.08 231.891 41.576 236.019 46.472L230.067 54.152C227.379 50.408 221.907 48.776 216.819 48.776C211.731 48.776 206.835 50.504 206.355 53.288C205.779 56.84 215.187 59.624 217.875 60.488C226.227 63.176 236.499 66.152 236.403 74.984C236.307 85.448 226.323 90.152 215.763 89.768C208.659 89.576 201.171 87.08 196.275 82.472ZM288.507 61.256V89H278.907V62.216C278.907 52.232 275.547 48.584 270.459 48.584C259.899 48.584 253.179 63.176 253.179 72.104V89H243.579V31.112C243.579 28.904 242.715 28.52 241.275 28.52H240.795V19.88H245.787C250.203 19.88 253.179 22.856 253.179 27.272V49.928C257.211 43.688 263.355 39.272 271.611 39.176C282.651 39.176 288.507 46.76 288.507 61.256ZM308.537 79.4V89H308.057C300.185 89 296.153 85.256 296.153 77.96V19.88H305.753V75.848C305.753 78.056 306.617 79.4 308.057 79.4H308.537ZM358.884 62.024L358.404 68.072H323.172C324.42 74.888 329.124 79.592 337.476 80.264C341.508 80.648 347.748 79.4 350.724 75.176L356.484 82.568C350.916 87.752 344.772 90.152 337.476 89.96C322.212 89.576 313.38 78.632 313.38 64.328C313.38 50.024 322.212 39.464 337.476 39.08C349.092 38.984 360.132 46.76 358.884 62.024ZM323.268 60.392H350.148V59.816C350.148 53.096 344.772 48.584 337.476 48.776C329.508 49.064 324.612 53.672 323.268 60.392ZM369.276 40.04L368.796 25.64H378.588L378.108 40.04H389.436V48.68H377.916L377.532 74.12C377.532 77.384 380.604 79.496 383.868 79.496H390.972V89H381.852C374.076 89 367.644 83.816 367.932 76.04L369.084 48.68H363.42V40.04H369.276ZM400.682 40.04L400.202 25.64H409.994L409.514 40.04H420.842V48.68H409.322L408.938 74.12C408.938 77.384 412.01 79.496 415.274 79.496H422.378V89H413.258C405.482 89 399.05 83.816 399.338 76.04L400.49 48.68H394.826V40.04H400.682ZM470.822 62.024L470.342 68.072H435.109C436.358 74.888 441.062 79.592 449.414 80.264C453.446 80.648 459.686 79.4 462.662 75.176L468.422 82.568C462.854 87.752 456.71 90.152 449.414 89.96C434.15 89.576 425.318 78.632 425.318 64.328C425.318 50.024 434.15 39.464 449.414 39.08C461.03 38.984 472.07 46.76 470.822 62.024ZM435.206 60.392H462.086V59.816C462.086 53.096 456.71 48.584 449.414 48.776C441.446 49.064 436.549 53.672 435.206 60.392ZM512.798 41.576L508.382 51.08C507.038 49.64 505.214 48.968 503.102 48.968C492.542 48.968 487.742 63.56 487.742 72.488V89H478.142V51.272C478.142 49.064 477.278 48.68 475.838 48.68H475.358V40.04H480.35C484.766 40.04 487.742 43.016 487.742 47.432V48.776C491.294 43.304 496.67 39.56 504.254 39.56C507.518 39.56 510.398 40.232 512.798 41.576Z" fill="#222220"/>
</svg>
