<svg width="951" height="194" viewBox="0 0 951 194" fill="none" xmlns="http://www.w3.org/2000/svg">
<path d="M0 190.4V0H43.12V24.64C43.12 29.12 42.84 34.6267 42.28 41.16C41.9067 47.5067 41.3467 54.2267 40.6 61.32C40.04 68.2267 39.3867 74.8533 38.64 81.2C37.8933 87.5467 37.24 92.8667 36.68 97.16H39.2C40.32 82.4133 42.28 70.84 45.08 62.44C48.0667 54.04 51.8 48.0667 56.28 44.52C60.76 40.9733 66.08 39.2 72.24 39.2C78.7733 39.2 84 40.7867 87.92 43.96C92.0267 47.1333 95.2 51.24 97.44 56.28C99.68 61.1333 101.267 66.4533 102.2 72.24C103.32 78.0267 103.973 83.5333 104.16 88.76C104.347 93.9867 104.44 98.4667 104.44 102.2V190.4H61.32V112.56C61.32 107.147 61.1333 102.013 60.76 97.16C60.5733 92.12 59.8267 88.0133 58.52 84.84C57.4 81.6667 55.3467 80.08 52.36 80.08C48.0667 80.08 45.4533 83.8133 44.52 91.28C43.5867 98.7467 43.12 108.267 43.12 119.84V190.4H0Z" fill="black"/>
<path d="M146.764 193.76C138.737 193.76 132.484 191.52 128.004 187.04C123.71 182.373 120.537 176.773 118.484 170.24C116.617 163.52 115.497 156.8 115.124 150.08C114.75 143.36 114.564 137.76 114.564 133.28V42.56H157.964V120.68C157.964 126.093 158.057 131.32 158.244 136.36C158.617 141.213 159.364 145.227 160.484 148.4C161.79 151.387 163.844 152.88 166.644 152.88C170.937 152.88 173.457 149.24 174.204 141.96C175.137 134.493 175.604 124.88 175.604 113.12V42.56H218.724V190.4H181.764V136.36H179.524C179.524 151.107 178.03 162.68 175.044 171.08C172.244 179.293 168.324 185.173 163.284 188.72C158.43 192.08 152.924 193.76 146.764 193.76Z" fill="black"/>
<path d="M279.254 193.76C264.321 193.76 252.747 190.96 244.534 185.36C236.321 179.573 231.094 172.107 228.854 162.96C226.801 153.813 227.361 144.107 230.534 133.84L268.334 130.48C267.774 136.08 267.587 141.587 267.774 147C267.961 152.227 268.894 156.52 270.574 159.88C272.441 163.24 275.334 164.92 279.254 164.92C284.667 164.92 287.374 161 287.374 153.16C287.374 145.133 284.667 139.067 279.254 134.96C274.027 130.667 267.867 126.653 260.774 122.92C255.921 120.307 250.881 117.32 245.654 113.96C240.427 110.413 236.041 105.933 232.494 100.52C229.134 95.1067 227.454 88.2 227.454 79.8C227.454 67.1067 231.654 57.2133 240.054 50.12C248.641 42.84 261.054 39.2 277.294 39.2C287.747 39.2 296.801 40.9733 304.454 44.52C312.294 48.0667 318.174 53.76 322.094 61.6C326.014 69.2533 327.321 79.52 326.014 92.4L289.054 97.44C289.801 89.4133 289.241 82.7867 287.374 77.56C285.507 72.1467 282.147 69.44 277.294 69.44C274.494 69.44 272.347 70.4667 270.854 72.52C269.547 74.3867 268.894 76.8133 268.894 79.8C268.894 85.0267 270.947 89.1333 275.054 92.12C279.161 94.92 284.107 97.8133 289.894 100.8C296.241 103.973 302.401 107.8 308.374 112.28C314.534 116.573 319.667 121.987 323.774 128.52C327.881 134.867 329.934 142.707 329.934 152.04C329.934 159.693 328.161 166.693 324.614 173.04C321.254 179.387 315.841 184.427 308.374 188.16C301.094 191.893 291.387 193.76 279.254 193.76Z" fill="black"/>
<path d="M337.422 190.4V0H380.542V24.64C380.542 29.12 380.262 34.6267 379.702 41.16C379.329 47.5067 378.769 54.2267 378.022 61.32C377.462 68.2267 376.809 74.8533 376.062 81.2C375.315 87.5467 374.662 92.8667 374.102 97.16H376.622C377.742 82.4133 379.702 70.84 382.502 62.44C385.489 54.04 389.222 48.0667 393.702 44.52C398.182 40.9733 403.502 39.2 409.662 39.2C416.195 39.2 421.422 40.7867 425.342 43.96C429.449 47.1333 432.622 51.24 434.862 56.28C437.102 61.1333 438.689 66.4533 439.622 72.24C440.742 78.0267 441.395 83.5333 441.582 88.76C441.769 93.9867 441.862 98.4667 441.862 102.2V190.4H398.742V112.56C398.742 107.147 398.555 102.013 398.182 97.16C397.995 92.12 397.249 88.0133 395.942 84.84C394.822 81.6667 392.769 80.08 389.782 80.08C385.489 80.08 382.875 83.8133 381.942 91.28C381.009 98.7467 380.542 108.267 380.542 119.84V190.4H337.422Z" fill="black"/>
<path d="M452.266 190.4V0H494.826V190.4H452.266Z" fill="black"/>
<path d="M559.066 193.76C544.693 193.76 533.493 190.68 525.466 184.52C517.626 178.173 512.119 169.493 508.946 158.48C505.773 147.28 504.186 134.307 504.186 119.56C504.186 109.107 504.933 99.12 506.426 89.6C508.106 80.08 510.906 71.4933 514.826 63.84C518.746 56.1867 524.159 50.2133 531.066 45.92C537.973 41.44 546.839 39.2 557.666 39.2C577.266 39.2 590.799 46.48 598.266 61.04C605.919 75.6 608.159 95.2933 604.986 120.12L547.306 122.36C547.679 136.733 548.799 146.907 550.666 152.88C552.533 158.853 555.333 161.84 559.066 161.84C562.239 161.84 564.386 160.16 565.506 156.8C566.813 153.253 567.466 149.147 567.466 144.48C567.653 139.627 567.466 135.24 566.906 131.32L606.386 134.96C607.693 141.493 607.973 148.213 607.226 155.12C606.666 162.027 604.706 168.467 601.346 174.44C597.986 180.227 592.853 184.893 585.946 188.44C579.226 191.987 570.266 193.76 559.066 193.76ZM557.666 72.8C554.119 72.8 551.599 75.4133 550.106 80.64C548.613 85.68 547.773 92.8667 547.586 102.2L565.786 101.36C566.159 91.28 565.693 84 564.386 79.52C563.079 75.04 560.839 72.8 557.666 72.8Z" fill="black"/>
<path d="M666.435 192.64C651.875 192.64 640.488 188.253 632.275 179.48C624.248 170.707 620.235 157.267 620.235 139.16V75.88H612.115V47.32H615.755C621.728 47.32 625.742 45.8267 627.795 42.84C629.848 39.6667 631.248 34.9067 631.995 28.56L633.675 14.84H662.235V42.56H681.555V76.72H662.235V130.2C662.235 137.293 663.262 142.613 665.315 146.16C667.555 149.707 670.448 151.48 673.995 151.48C676.795 151.48 679.315 150.36 681.555 148.12V190.4C677.075 191.893 672.035 192.64 666.435 192.64Z" fill="black"/>
<path d="M741.904 192.64C727.344 192.64 715.957 188.253 707.744 179.48C699.717 170.707 695.704 157.267 695.704 139.16V75.88H687.584V47.32H691.224C697.197 47.32 701.21 45.8267 703.264 42.84C705.317 39.6667 706.717 34.9067 707.464 28.56L709.144 14.84H737.704V42.56H757.024V76.72H737.704V130.2C737.704 137.293 738.73 142.613 740.784 146.16C743.024 149.707 745.917 151.48 749.464 151.48C752.264 151.48 754.784 150.36 757.024 148.12V190.4C752.544 191.893 747.504 192.64 741.904 192.64Z" fill="black"/>
<path d="M816.644 193.76C802.271 193.76 791.071 190.68 783.044 184.52C775.204 178.173 769.697 169.493 766.524 158.48C763.351 147.28 761.764 134.307 761.764 119.56C761.764 109.107 762.511 99.12 764.004 89.6C765.684 80.08 768.484 71.4933 772.404 63.84C776.324 56.1867 781.737 50.2133 788.644 45.92C795.551 41.44 804.417 39.2 815.244 39.2C834.844 39.2 848.377 46.48 855.844 61.04C863.497 75.6 865.737 95.2933 862.564 120.12L804.884 122.36C805.257 136.733 806.377 146.907 808.244 152.88C810.111 158.853 812.911 161.84 816.644 161.84C819.817 161.84 821.964 160.16 823.084 156.8C824.391 153.253 825.044 149.147 825.044 144.48C825.231 139.627 825.044 135.24 824.484 131.32L863.964 134.96C865.271 141.493 865.551 148.213 864.804 155.12C864.244 162.027 862.284 168.467 858.924 174.44C855.564 180.227 850.431 184.893 843.524 188.44C836.804 191.987 827.844 193.76 816.644 193.76ZM815.244 72.8C811.697 72.8 809.177 75.4133 807.684 80.64C806.191 85.68 805.351 92.8667 805.164 102.2L823.364 101.36C823.737 91.28 823.271 84 821.964 79.52C820.657 75.04 818.417 72.8 815.244 72.8Z" fill="black"/>
<path d="M874.453 190.4V42.56H913.653V98.84H915.893C915.893 83.72 917.293 72.0533 920.093 63.84C922.893 55.6267 926.626 49.9333 931.293 46.76C936.146 43.5867 941.373 42 946.973 42C947.72 42 948.373 42 948.933 42C949.493 42 950.146 42.0933 950.893 42.28L949.213 90.44C948.093 90.0667 946.786 89.7867 945.293 89.6C943.986 89.4133 942.586 89.32 941.093 89.32C933.44 89.32 927.746 92.0267 924.013 97.44C920.28 102.667 918.413 111.627 918.413 124.32V190.4H874.453Z" fill="black"/>
</svg>
