<svg width="707" height="412" viewBox="0 0 707 412" fill="none" xmlns="http://www.w3.org/2000/svg">
<path d="M187.568 239.257C190.568 242.258 192.253 246.327 192.253 250.569V395.475C192.253 404.311 185.089 411.475 176.253 411.475H153.447C144.611 411.475 137.447 404.311 137.447 395.475V309.469C137.447 295.215 120.213 288.076 110.134 298.156L49.3196 358.969C43.0712 365.218 32.9405 365.218 26.6922 358.969L10.5666 342.844C4.31825 336.596 4.31825 326.465 10.5666 320.217L71.2 259.583C81.2794 249.504 74.1407 232.27 59.8863 232.27H12.6138C5.64738 232.27 0 226.622 0 219.656C0 212.689 5.64738 207.042 12.6138 207.042H148.734C152.978 207.042 157.048 208.728 160.049 211.73L187.568 239.257Z" fill="#222220"/>
<path d="M192.253 159.248C192.253 163.491 190.568 167.559 187.568 170.56L160.133 198.004C157.132 201.006 153.062 202.692 148.817 202.692H12.6138C5.64738 202.692 0 197.045 0 190.079C0 183.112 5.64738 177.465 12.6138 177.465H59.3784C73.6329 177.465 80.7716 160.231 70.6921 150.151L11.1826 90.6416C4.9343 84.3933 4.93416 74.2629 11.1823 68.0144L27.3073 51.8886C33.5557 45.6399 43.6866 45.6398 49.9351 51.8883L110.134 112.087C120.213 122.167 137.447 115.028 137.447 100.774V16C137.447 7.16344 144.611 0 153.447 0H176.253C185.089 0 192.253 7.16344 192.253 16V159.248Z" fill="#222220"/>
<path d="M207.573 190.475V0.074707H250.693V24.7147C250.693 29.1947 250.413 34.7014 249.853 41.2347C249.479 47.5814 248.919 54.3014 248.173 61.3947C247.613 68.3014 246.959 74.928 246.213 81.2747C245.466 87.6214 244.813 92.9414 244.253 97.2347H246.773C247.893 82.488 249.853 70.9147 252.653 62.5147C255.639 54.1147 259.373 48.1414 263.853 44.5947C268.333 41.048 273.653 39.2747 279.813 39.2747C286.346 39.2747 291.573 40.8614 295.493 44.0347C299.599 47.208 302.773 51.3147 305.013 56.3547C307.253 61.208 308.839 66.528 309.773 72.3147C310.893 78.1014 311.546 83.608 311.733 88.8347C311.919 94.0614 312.013 98.5414 312.013 102.275V190.475H268.893V112.635C268.893 107.221 268.706 102.088 268.333 97.2347C268.146 92.1947 267.399 88.088 266.093 84.9147C264.973 81.7414 262.919 80.1547 259.933 80.1547C255.639 80.1547 253.026 83.888 252.093 91.3547C251.159 98.8214 250.693 108.341 250.693 119.915V190.475H207.573Z" fill="#222220"/>
<path d="M354.337 193.835C346.31 193.835 340.057 191.595 335.577 187.115C331.283 182.448 328.11 176.848 326.057 170.315C324.19 163.595 323.07 156.875 322.697 150.155C322.323 143.435 322.137 137.835 322.137 133.355V42.6347H365.536V120.755C365.536 126.168 365.63 131.395 365.817 136.435C366.19 141.288 366.937 145.301 368.057 148.475C369.363 151.461 371.417 152.955 374.217 152.955C378.51 152.955 381.03 149.315 381.777 142.035C382.71 134.568 383.177 124.955 383.177 113.195V42.6347H426.297V190.475H389.337V136.435H387.096C387.096 151.181 385.603 162.755 382.617 171.155C379.816 179.368 375.897 185.248 370.857 188.795C366.003 192.155 360.497 193.835 354.337 193.835Z" fill="#222220"/>
<path d="M486.827 193.835C471.893 193.835 460.32 191.035 452.107 185.435C443.893 179.648 438.667 172.181 436.427 163.035C434.373 153.888 434.933 144.181 438.107 133.915L475.907 130.555C475.347 136.155 475.16 141.661 475.347 147.075C475.533 152.301 476.467 156.595 478.147 159.955C480.013 163.315 482.907 164.995 486.827 164.995C492.24 164.995 494.947 161.075 494.947 153.235C494.947 145.208 492.24 139.141 486.827 135.035C481.6 130.741 475.44 126.728 468.347 122.995C463.493 120.381 458.453 117.395 453.227 114.035C448 110.488 443.613 106.008 440.067 100.595C436.707 95.1814 435.027 88.2747 435.027 79.8747C435.027 67.1814 439.227 57.288 447.627 50.1947C456.213 42.9147 468.627 39.2747 484.867 39.2747C495.32 39.2747 504.374 41.048 512.027 44.5947C519.867 48.1414 525.747 53.8347 529.667 61.6747C533.587 69.328 534.893 79.5947 533.587 92.4747L496.627 97.5147C497.374 89.488 496.813 82.8614 494.947 77.6347C493.08 72.2214 489.72 69.5147 484.867 69.5147C482.067 69.5147 479.92 70.5414 478.427 72.5947C477.12 74.4614 476.467 76.888 476.467 79.8747C476.467 85.1014 478.52 89.208 482.627 92.1947C486.733 94.9947 491.68 97.888 497.467 100.875C503.814 104.048 509.974 107.875 515.947 112.355C522.107 116.648 527.24 122.061 531.347 128.595C535.453 134.941 537.507 142.781 537.507 152.115C537.507 159.768 535.733 166.768 532.187 173.115C528.827 179.461 523.414 184.501 515.947 188.235C508.667 191.968 498.96 193.835 486.827 193.835Z" fill="#222220"/>
<path d="M544.995 190.475V0.074707H588.115V24.7147C588.115 29.1947 587.835 34.7014 587.275 41.2347C586.901 47.5814 586.341 54.3014 585.595 61.3947C585.035 68.3014 584.381 74.928 583.635 81.2747C582.888 87.6214 582.235 92.9414 581.675 97.2347H584.195C585.315 82.488 587.275 70.9147 590.075 62.5147C593.061 54.1147 596.795 48.1414 601.275 44.5947C605.755 41.048 611.075 39.2747 617.235 39.2747C623.768 39.2747 628.995 40.8614 632.915 44.0347C637.021 47.208 640.195 51.3147 642.435 56.3547C644.675 61.208 646.261 66.528 647.195 72.3147C648.315 78.1014 648.968 83.608 649.155 88.8347C649.341 94.0614 649.435 98.5414 649.435 102.275V190.475H606.315V112.635C606.315 107.221 606.128 102.088 605.755 97.2347C605.568 92.1947 604.821 88.088 603.515 84.9147C602.395 81.7414 600.341 80.1547 597.355 80.1547C593.061 80.1547 590.448 83.888 589.515 91.3547C588.581 98.8214 588.115 108.341 588.115 119.915V190.475H544.995Z" fill="#222220"/>
<path d="M207.573 411.835V221.435H250.133V411.835H207.573Z" fill="#222220"/>
<path d="M314.373 411.834C300 411.834 288.8 408.754 280.773 402.594C272.933 396.248 267.426 387.568 264.253 376.554C261.08 365.354 259.493 352.381 259.493 337.634C259.493 327.181 260.24 317.194 261.733 307.674C263.413 298.154 266.213 289.568 270.133 281.914C274.053 274.261 279.466 268.288 286.373 263.994C293.28 259.514 302.146 257.274 312.973 257.274C332.573 257.274 346.106 264.554 353.573 279.114C361.226 293.674 363.466 313.368 360.293 338.194L302.613 340.434C302.986 354.808 304.106 364.981 305.973 370.954C307.84 376.928 310.64 379.914 314.373 379.914C317.546 379.914 319.693 378.234 320.813 374.874C322.12 371.328 322.773 367.221 322.773 362.554C322.96 357.701 322.773 353.314 322.213 349.394L361.693 353.034C363 359.568 363.28 366.288 362.533 373.194C361.973 380.101 360.013 386.541 356.653 392.514C353.293 398.301 348.16 402.968 341.253 406.514C334.533 410.061 325.573 411.834 314.373 411.834ZM312.973 290.874C309.426 290.874 306.906 293.488 305.413 298.714C303.92 303.754 303.08 310.941 302.893 320.274L321.093 319.434C321.466 309.354 321 302.074 319.693 297.594C318.386 293.114 316.146 290.874 312.973 290.874Z" fill="#222220"/>
<path d="M421.742 411.714C407.182 411.714 395.795 407.328 387.582 398.554C379.555 389.781 375.542 376.341 375.542 358.234V294.954H367.422V266.394H371.062C377.035 266.394 381.049 264.901 383.102 261.914C385.155 258.741 386.555 253.981 387.302 247.634L388.982 233.914H417.542V261.634H436.862V295.794H417.542V349.274C417.542 356.368 418.569 361.688 420.622 365.234C422.862 368.781 425.755 370.554 429.302 370.554C432.102 370.554 434.622 369.434 436.862 367.194V409.474C432.382 410.968 427.342 411.714 421.742 411.714Z" fill="#222220"/>
<path d="M497.211 411.714C482.651 411.714 471.264 407.328 463.051 398.554C455.024 389.781 451.011 376.341 451.011 358.234V294.954H442.891V266.394H446.531C452.504 266.394 456.518 264.901 458.571 261.914C460.624 258.741 462.024 253.981 462.771 247.634L464.451 233.914H493.011V261.634H512.331V295.794H493.011V349.274C493.011 356.368 494.038 361.688 496.091 365.234C498.331 368.781 501.224 370.554 504.771 370.554C507.571 370.554 510.091 369.434 512.331 367.194V409.474C507.851 410.968 502.811 411.714 497.211 411.714Z" fill="#222220"/>
<path d="M571.951 411.834C557.578 411.834 546.378 408.754 538.351 402.594C530.511 396.248 525.005 387.568 521.831 376.554C518.658 365.354 517.071 352.381 517.071 337.634C517.071 327.181 517.818 317.194 519.311 307.674C520.991 298.154 523.791 289.568 527.711 281.914C531.631 274.261 537.045 268.288 543.951 263.994C550.858 259.514 559.725 257.274 570.551 257.274C590.151 257.274 603.685 264.554 611.151 279.114C618.805 293.674 621.045 313.368 617.871 338.194L560.191 340.434C560.565 354.808 561.685 364.981 563.551 370.954C565.418 376.928 568.218 379.914 571.951 379.914C575.125 379.914 577.271 378.234 578.391 374.874C579.698 371.328 580.351 367.221 580.351 362.554C580.538 357.701 580.351 353.314 579.791 349.394L619.271 353.034C620.578 359.568 620.858 366.288 620.111 373.194C619.551 380.101 617.591 386.541 614.231 392.514C610.871 398.301 605.738 402.968 598.831 406.514C592.111 410.061 583.151 411.834 571.951 411.834ZM570.551 290.874C567.005 290.874 564.485 293.488 562.991 298.714C561.498 303.754 560.658 310.941 560.471 320.274L578.671 319.434C579.045 309.354 578.578 302.074 577.271 297.594C575.965 293.114 573.725 290.874 570.551 290.874Z" fill="#222220"/>
<path d="M629.76 411.474V263.634H668.96V319.914H671.2C671.2 304.794 672.6 293.128 675.4 284.914C678.2 276.701 681.934 271.008 686.6 267.834C691.454 264.661 696.68 263.074 702.28 263.074C703.027 263.074 703.68 263.074 704.24 263.074C704.8 263.074 705.454 263.168 706.2 263.354L704.52 311.514C703.4 311.141 702.094 310.861 700.6 310.674C699.294 310.488 697.894 310.394 696.4 310.394C688.747 310.394 683.054 313.101 679.32 318.514C675.587 323.741 673.72 332.701 673.72 345.394V411.474H629.76Z" fill="#222220"/>
</svg>
