<svg width="1051" height="194" viewBox="0 0 1051 194" fill="none" xmlns="http://www.w3.org/2000/svg">
<path d="M257.284 120.68C257.284 126.093 257.377 131.32 257.563 136.36C257.937 141.214 258.684 145.227 259.804 148.4C261.11 151.387 263.164 152.88 265.964 152.88C270.257 152.88 272.777 149.24 273.523 141.96C274.457 134.493 274.924 124.88 274.924 113.12V42.5596H318.044V190.4H281.084V136.36H278.844C278.844 151.107 277.35 162.68 274.363 171.08C271.563 179.293 267.643 185.173 262.604 188.72C257.75 192.08 252.244 193.76 246.084 193.76C238.057 193.76 231.804 191.52 227.324 187.04C223.031 182.373 219.857 176.773 217.804 170.24C215.937 163.52 214.817 156.8 214.443 150.08C214.07 143.36 213.884 137.76 213.884 133.28V42.5596H257.284V120.68ZM376.614 39.2002C387.068 39.2002 396.121 40.9729 403.774 44.5195C411.614 48.0662 417.494 53.7598 421.414 61.5996C425.334 69.2529 426.641 79.5204 425.334 92.4004L388.374 97.4404C389.121 89.4138 388.561 82.7862 386.694 77.5596C384.828 72.1465 381.467 69.4405 376.614 69.4404C373.814 69.4404 371.667 70.4663 370.174 72.5195C368.867 74.3862 368.214 76.8132 368.214 79.7998C368.214 85.0265 370.267 89.1335 374.374 92.1201C378.481 94.9201 383.427 97.8132 389.214 100.8C395.561 103.973 401.721 107.8 407.694 112.28C413.854 116.573 418.987 121.987 423.094 128.52C427.2 134.866 429.254 142.707 429.254 152.04C429.254 159.693 427.481 166.693 423.935 173.04C420.575 179.387 415.161 184.427 407.694 188.16C400.414 191.893 390.707 193.76 378.574 193.76C363.641 193.76 352.068 190.96 343.854 185.36C335.641 179.574 330.414 172.107 328.174 162.96C326.121 153.813 326.681 144.106 329.854 133.84L367.654 130.48C367.094 136.08 366.907 141.587 367.094 147C367.28 152.227 368.215 156.52 369.895 159.88C371.761 163.24 374.654 164.92 378.574 164.92C383.987 164.92 386.694 161 386.694 153.16C386.694 145.134 383.987 139.067 378.574 134.96C373.348 130.667 367.187 126.653 360.094 122.92C355.24 120.307 350.2 117.32 344.974 113.96C339.747 110.413 335.361 105.933 331.814 100.52C328.455 95.1062 326.774 88.1997 326.774 79.7998C326.774 67.1066 330.974 57.2134 339.374 50.1201C347.961 42.8401 360.374 39.2002 376.614 39.2002ZM656.986 39.2002C676.586 39.2003 690.119 46.4801 697.586 61.04C705.239 75.6 707.479 95.2935 704.306 120.12L646.626 122.36C646.999 136.733 648.12 146.907 649.986 152.88C651.853 158.853 654.653 161.84 658.386 161.84C661.559 161.84 663.706 160.16 664.826 156.8C666.133 153.253 666.786 149.147 666.786 144.48C666.973 139.627 666.786 135.24 666.226 131.32L705.706 134.96C707.013 141.493 707.293 148.213 706.546 155.12C705.986 162.027 704.026 168.467 700.666 174.44C697.306 180.227 692.172 184.894 685.266 188.44C678.546 191.987 669.586 193.76 658.386 193.76C644.012 193.76 632.813 190.68 624.786 184.52C616.946 178.173 611.439 169.494 608.266 158.48C605.092 147.28 603.506 134.306 603.506 119.56C603.506 109.106 604.253 99.1195 605.746 89.5996C607.426 80.0798 610.226 71.4931 614.146 63.8398C618.065 56.1865 623.479 50.2133 630.386 45.9199C637.292 41.4399 646.16 39.2002 656.986 39.2002ZM914.564 39.2002C934.164 39.2003 947.697 46.4801 955.164 61.04C962.817 75.6 965.057 95.2935 961.884 120.12L904.204 122.36C904.577 136.733 905.698 146.907 907.564 152.88C909.431 158.853 912.231 161.84 915.964 161.84C919.137 161.84 921.284 160.16 922.404 156.8C923.711 153.253 924.364 149.147 924.364 144.48C924.551 139.627 924.364 135.24 923.804 131.32L963.284 134.96C964.591 141.493 964.871 148.213 964.124 155.12C963.564 162.027 961.604 168.467 958.244 174.44C954.884 180.227 949.75 184.894 942.844 188.44C936.124 191.987 927.164 193.76 915.964 193.76C901.591 193.76 890.391 190.68 882.364 184.52C874.524 178.173 869.017 169.494 865.844 158.48C862.67 147.28 861.084 134.306 861.084 119.56C861.084 109.106 861.831 99.1195 863.324 89.5996C865.004 80.0798 867.804 71.4931 871.724 63.8398C875.644 56.1865 881.057 50.2133 887.964 45.9199C894.871 41.4399 903.738 39.2002 914.564 39.2002ZM761.555 42.5596H780.875V76.7197H761.555V130.2C761.555 137.293 762.581 142.614 764.635 146.16C766.875 149.707 769.769 151.48 773.315 151.48C776.115 151.48 778.635 150.36 780.875 148.12V190.4C776.395 191.894 771.355 192.64 765.755 192.64C751.195 192.64 739.808 188.254 731.595 179.48C723.568 170.707 719.555 157.267 719.555 139.16V75.8799H711.435V47.3203H715.075C721.048 47.3203 725.062 45.8265 727.115 42.8398C729.168 39.6665 730.569 34.9061 731.315 28.5596L732.995 14.8398H761.555V42.5596ZM837.023 42.5596H856.344V76.7197H837.023V130.2C837.023 137.293 838.05 142.614 840.104 146.16C842.344 149.707 845.238 151.48 848.784 151.48C851.584 151.48 854.104 150.36 856.344 148.12V190.4C851.864 191.894 846.824 192.64 841.224 192.64C826.664 192.64 815.277 188.254 807.063 179.48C799.037 170.707 795.023 157.267 795.023 139.16V75.8799H786.903V47.3203H790.544C796.517 47.3203 800.531 45.8265 802.584 42.8398C804.637 39.6665 806.038 34.9061 806.784 28.5596L808.464 14.8398H837.023V42.5596ZM69.627 96.0029C70.6346 96.0029 71.6211 96.2038 72.5322 96.582C62.5187 109.765 58.2423 121.926 62.8574 126.543C67.1436 130.829 77.9293 127.449 90 118.931V183.012C90 187.092 86.6465 190.4 82.5098 190.4H71.834C67.6973 190.4 64.3438 187.092 64.3438 183.012V143.299C64.3438 136.717 56.2762 133.42 51.5576 138.074L23.0879 166.155C20.1628 169.04 15.4202 169.04 12.4951 166.155L4.94629 158.71C2.02134 155.825 2.0216 151.147 4.94629 148.262L33.3311 120.264C38.0495 115.61 34.7079 107.652 28.0352 107.651H5.90527C2.64416 107.651 0.000133765 105.044 0 101.827C0 98.6104 2.64407 96.0029 5.90527 96.0029H69.627ZM142.44 24.6396C142.44 29.1196 142.16 34.6268 141.6 41.1602C141.226 47.5068 140.667 54.2271 139.92 61.3203C139.36 68.2269 138.707 74.8536 137.96 81.2002C137.213 87.5468 136.56 92.8669 136 97.1602H138.52C139.64 82.4136 141.6 70.8404 144.4 62.4404C147.387 54.0404 151.12 48.0662 155.6 44.5195C160.08 40.9729 165.4 39.2003 171.56 39.2002C178.093 39.2002 183.32 40.7866 187.24 43.96C191.347 47.1333 194.52 51.2403 196.76 56.2803C199 61.1336 200.586 66.4536 201.52 72.2402C202.64 78.0268 203.294 83.5332 203.48 88.7598C203.667 93.9864 203.76 98.4669 203.76 102.2V190.4H160.64V112.56C160.64 107.146 160.453 102.013 160.08 97.1602C159.893 92.1202 159.147 88.0132 157.84 84.8398C156.72 81.6666 154.666 80.0801 151.68 80.0801C147.387 80.0803 144.773 83.8138 143.84 91.2803C142.907 98.7469 142.44 108.267 142.44 119.84V190.4H99.3203V119.845C110.852 127.684 121.013 130.67 125.143 126.543C129.897 121.788 125.221 109.033 114.558 95.4004C125.219 81.7675 129.895 69.0115 125.143 64.2568C121.013 60.1281 110.852 63.1136 99.3203 70.9541V0H142.44V24.6396ZM479.862 24.6396C479.862 29.1196 479.581 34.6268 479.021 41.1602C478.648 47.5068 478.088 54.2271 477.342 61.3203C476.782 68.2269 476.128 74.8536 475.382 81.2002C474.635 87.5468 473.982 92.8669 473.422 97.1602H475.941C477.061 82.4136 479.022 70.8404 481.822 62.4404C484.809 54.0404 488.541 48.0662 493.021 44.5195C497.501 40.9729 502.822 39.2003 508.981 39.2002C515.515 39.2002 520.742 40.7866 524.662 43.96C528.769 47.1333 531.942 51.2403 534.182 56.2803C536.422 61.1336 538.009 66.4536 538.942 72.2402C540.062 78.0267 540.716 83.5333 540.902 88.7598C541.089 93.9864 541.182 98.4669 541.182 102.2V190.4H498.062V112.56C498.062 107.146 497.875 102.013 497.502 97.1602C497.315 92.1202 496.568 88.0132 495.262 84.8398C494.142 81.6666 492.088 80.0801 489.102 80.0801C484.808 80.0803 482.195 83.8138 481.262 91.2803C480.328 98.7469 479.862 108.267 479.862 119.84V190.4H436.742V0H479.862V24.6396ZM594.146 190.4H551.586V0H594.146V190.4ZM1048.25 42C1048.81 42 1049.47 42.0936 1050.21 42.2803L1048.53 90.4404C1047.41 90.0671 1046.11 89.7863 1044.61 89.5996C1043.31 89.4129 1041.91 89.3203 1040.41 89.3203C1032.76 89.3203 1027.07 92.0271 1023.33 97.4404C1019.6 102.667 1017.73 111.627 1017.73 124.32V190.4H973.773V42.5596H1012.97V98.8398H1015.21C1015.21 83.7199 1016.61 72.0531 1019.41 63.8398C1022.21 55.6266 1025.95 49.9331 1030.61 46.7598C1035.47 43.5865 1040.69 42 1046.29 42H1048.25ZM656.986 72.7998C653.44 72.7998 650.919 75.4132 649.426 80.6396C647.932 85.6797 647.093 92.8669 646.906 102.2L665.106 101.36C665.48 91.2804 665.013 83.9995 663.706 79.5195C662.399 75.04 660.159 72.8 656.986 72.7998ZM914.564 72.7998C911.018 72.7998 908.497 75.4132 907.004 80.6396C905.511 85.6797 904.671 92.8669 904.484 102.2L922.685 101.36C923.058 91.2804 922.591 83.9995 921.284 79.5195C919.978 75.04 917.737 72.8 914.564 72.7998ZM82.5098 0.400391C86.6465 0.400391 90 3.70777 90 7.78809V71.8691C77.9294 63.3524 67.1436 59.973 62.8574 64.2568C58.3124 68.8019 62.3872 80.656 72.0693 93.6006C71.3021 93.857 70.4914 93.9941 69.666 93.9941H5.90527C2.6442 93.9941 0.000213182 91.3865 0 88.1699C0 84.9532 2.64407 82.3447 5.90527 82.3447H27.7969C34.4699 82.3447 37.8123 74.3866 33.0938 69.7324L5.23535 42.2539C2.31035 39.3688 2.30951 34.6909 5.23438 31.8057L12.7832 24.3594C15.7082 21.4742 20.4508 21.4744 23.376 24.3594L51.5576 52.1572C56.2762 56.8108 64.3438 53.5145 64.3438 46.9326V7.78809C64.3438 3.70777 67.6973 0.400391 71.834 0.400391H82.5098Z" fill="#222220"/>
</svg>
